<?xml version="1.0" encoding="UTF-8"?>
<svg id="Capa_1" data-name="Capa 1" xmlns="http://www.w3.org/2000/svg" viewBox="0 0 1112 417.3">
  <path d="m380.5,324.4c.3-.8.9-1.3,1.7-1.4.8-.1,1.5,0,2.2.2,4.1,1.4,6.1,2.1,10.2,3.5,3,1.1,5.8,2.3,8.3,3.6,2.5,1.3,4.6,2.9,6.2,4.7,1.6,1.8,2.7,3.9,3.2,6.2.5,2.3.3,5-.6,8.1-.9,2.7-2.1,4.9-3.8,6.5-1.7,1.6-3.7,2.8-5.9,3.5-2.3.7-4.7.9-7.4.7-2.7-.2-5.4-.8-8.2-1.8-4.8-1.6-7.3-2.4-12.1-4-3.1,8.1-4.6,12.2-7.7,20.4-.3.6-.7,1-1.4,1.1-.7.1-1.4,0-2-.2-.7-.3-1.2-.7-1.7-1.2-.4-.5-.5-1.1-.2-1.8,6.2-16.1,12.7-32.1,19.2-48.1Zm3.9,3.8c-3.4,8.7-5.1,13-8.5,21.7,4.8,1.8,7.2,2.7,12.1,4.3,2.1.7,4.1,1.1,6.1,1.3,2,.1,3.8,0,5.5-.6,1.7-.5,3.1-1.4,4.4-2.5,1.2-1.1,2.2-2.7,2.9-4.5.9-2.5,1.1-4.7.5-6.5-.6-1.8-1.6-3.4-3-4.7-1.4-1.3-3.2-2.4-5.3-3.3-2.1-.9-4.1-1.7-6.2-2.5-3.4-1.1-5.1-1.6-8.5-2.8Z"/>
  <path d="m414.6,374.1s0,0-.1,0c-4.2,5.9-6.3,8.8-10.6,14.6-.4.5-.9.8-1.6.8-.7,0-1.3-.2-1.9-.6-.6-.4-1-.8-1.3-1.4-.3-.6-.2-1.2.2-1.8,11.6-15.3,22.8-30.9,33.6-46.9.4-.6.9-1,1.5-1.1.6-.1,1.2-.1,1.7,0,.5.2,1,.5,1.4.9.4.5.6,1,.7,1.6,1.8,19,4.3,37.8,7.5,56.7.2.7,0,1.3-.5,1.7-.5.4-1.1.6-1.8.6-.7,0-1.4,0-2-.4-.6-.3-1-.8-1.2-1.5-1.2-7.4-1.7-11.1-2.7-18.4,0,0-.1,0-.2,0-9-1.7-13.6-2.7-22.6-4.8Zm2.6-3.8c7.9,1.9,11.8,2.7,19.7,4.3-1.2-9.6-2.2-19.3-2.9-28.9-5.4,8.3-11,16.6-16.8,24.7Z"/>
  <path d="m477.2,380.2c-1.9,0-4-.3-6.2-.7-3.5-.6-5.3-.8-8.8-1.5-1.4,8.6-2.1,12.8-3.5,21.4-.1.7-.5,1.1-1.1,1.4-.6.2-1.3.3-2,.2-.7-.1-1.3-.4-1.8-.9-.5-.4-.7-1-.5-1.7,3-16.9,6.1-33.9,9.3-50.8.2-.9.7-1.4,1.4-1.7.7-.3,1.3-.3,1.9-.2,5.5,1,8.2,1.5,13.8,2.3,2.6.4,5.1,1,7.4,1.9,2.3.9,4.2,2,5.8,3.4,1.6,1.4,2.8,3.2,3.7,5.2.8,2.1,1.1,4.5.8,7.3-.5,4.4-2,7.7-4.5,9.8-2.5,2.2-5.7,3.5-9.6,4.1,4.8,9.2,7.3,13.8,12.7,22.9.4.6.4,1.2.1,1.7-.3.5-.8.9-1.4,1.2-.6.3-1.2.4-1.9.3-.7,0-1.2-.4-1.6-1.1-4.8-8.1-9.5-16.3-13.8-24.7Zm-10.2-29.9c-1.6,9.3-2.4,13.9-4,23.2,3.5.6,5.2.9,8.7,1.5,2.3.4,4.5.6,6.9.6,2.3,0,4.5-.2,6.4-.9,1.9-.6,3.6-1.7,4.9-3.2,1.3-1.5,2.1-3.6,2.4-6.2.2-2,0-3.7-.6-5.2-.6-1.5-1.5-2.8-2.7-3.8-1.2-1.1-2.6-1.9-4.4-2.6-1.7-.6-3.6-1.1-5.6-1.4-4.8-.7-7.2-1.1-12-2Z"/>
  <path d="m509.4,353.4c0-.9.4-1.5.9-1.8.5-.3,1.2-.5,1.9-.5,4.4,0,8.9.8,13.3,2.1,4.5,1.3,8.5,3.2,12.2,5.6,3.7,2.5,6.7,5.5,9.1,9.1,2.4,3.6,3.7,7.8,3.8,12.5.1,4.1-.7,7.9-2.5,11.4-1.8,3.4-4.5,6.4-8.2,8.8-3.7,2.4-8.2,4.3-13.6,5.5-5.4,1.2-11.8,1.8-18.7,1.4-1.4,0-2.2-.9-2.2-2.3,0-4.5.5-9.2.8-13.3.3-4.2.6-8.3.9-12.4.3-4.1.7-8.3,1-12.5.4-4.2.8-8.7,1.2-13.6Zm36,27.1c0-3.8-.9-7.1-2.8-10-1.8-2.9-4.3-5.3-7.2-7.4-3-2.1-6.3-3.6-10-4.8-3.7-1.1-7.5-1.9-11.3-2.1-.3,4.3-.6,8.3-.8,12.1-.2,3.8-.4,7.6-.6,11.3-.2,3.7-.4,7.5-.7,11.4-.2,3.8-.5,7.9-.9,12.1,4.5.1,8.9-.2,13.1-.9,4.2-.8,7.9-2.1,11-3.9,3.2-1.8,5.7-4.2,7.5-7.2,1.8-2.9,2.7-6.5,2.7-10.6Z"/>
  <path d="m562,391.7s0,0-.1,0c-2.1,6.9-3.2,10.3-5.5,17.1-.2.6-.6,1-1.3,1.2-.6.2-1.3.2-1.9,0-.6-.2-1.2-.5-1.6-1-.5-.5-.6-1-.4-1.7,6.2-18,11.9-36.2,17-54.6.2-.7.5-1.2,1-1.5.5-.3,1.1-.5,1.6-.5.6,0,1.1.2,1.6.5.5.3.9.7,1.1,1.3,7.7,17.6,15.8,34.7,24.5,51.8.4.7.4,1.2,0,1.8-.4.5-.9.9-1.5,1.1-.7.3-1.3.3-2,.2-.7-.1-1.2-.5-1.6-1.1-3.3-6.7-5-10.1-8.1-16.8,0,0-.1,0-.2,0-9,1-13.5,1.5-22.6,2.1Zm1.3-4.4c7.9-.5,11.9-.9,19.7-1.7-4.1-8.8-8-17.7-11.6-26.7-2.5,9.5-5.2,19-8.1,28.4Z"/>
  <path d="m608.2,405c-.8.1-1.6,0-2.2-.2-.6-.2-1-.8-1.1-1.6-1.8-16.9-3.7-33.9-5.7-50.8-.1-.8,0-1.4.6-1.9.5-.4,1-.7,1.7-.7.6,0,1.2.1,1.8.5.6.4.9,1,1,1.8,2,16,4,32,5.8,48.1,9.4-1.3,18.9-2.8,28.3-4.7.8-.1,1.5,0,2,.3.5.4.9.9,1,1.4.2.6,0,1.1-.3,1.7-.3.5-.9.9-1.8,1.1-10.3,2-20.7,3.7-31.1,5Z"/>
  <path d="m659.4,391.2c-3.6-14.9-7.3-29.9-11.1-44.8-4.4,1-6.6,1.5-11,2.4-.9.2-1.6,0-2.1-.4-.5-.4-.8-.9-.9-1.5,0-.6,0-1.1.4-1.7.4-.6.9-.9,1.7-1.1,11-2.3,16.4-3.6,27.3-6.5.8-.2,1.4-.1,1.9.2.5.4.8.8.9,1.4.2.6.1,1.1-.1,1.7-.3.6-.8.9-1.5,1.1-4.8,1.3-7.2,2-12.1,3.2,4,14.9,7.9,29.7,11.8,44.6,5.1-1.2,7.6-1.9,12.6-3.3.9-.2,1.6-.2,2.1.2.5.3.9.8,1.1,1.3.2.6.1,1.1-.1,1.7-.3.6-.8.9-1.6,1.2-10.2,2.8-20.6,5.3-31,7.4-1,.2-1.7,0-2.3-.3-.5-.4-.8-.9-.9-1.4,0-.5.1-1.1.5-1.7.4-.6,1.1-.9,2-1.1,4.9-1,7.3-1.6,12.2-2.7Z"/>
  <path d="m720.6,361.8c-.7-1.6-1.8-2.7-3.3-3.3-1.5-.6-3.2-.9-5.3-1-2,0-4.2,0-6.6.4-2.4.3-4.8.6-7.3.9-2.5.3-4.9.4-7.3.5-2.4,0-4.6-.3-6.7-.9-2-.6-3.8-1.6-5.3-3.1-1.5-1.4-2.6-3.4-3.3-6-.7-2.5-.7-4.8,0-7,.7-2.2,1.9-4.2,3.5-6,1.6-1.8,3.6-3.3,5.9-4.6,2.3-1.3,4.8-2.3,7.4-3,2.6-.7,5.2-1.1,7.9-1.1,2.7,0,5.2.3,7.5,1.1.8.3,1.2.7,1.3,1.3,0,.6,0,1.2-.3,1.7-.3.5-.7.9-1.4,1.3-.6.3-1.3.4-2,.2-2.4-.8-5.1-1-8.2-.5-3.1.4-6,1.4-8.8,2.7-2.7,1.4-4.9,3.2-6.6,5.3-1.7,2.2-2.2,4.7-1.5,7.4.5,1.9,1.4,3.3,2.7,4.2,1.4.9,3.1,1.5,5,1.8,2,.3,4.2.3,6.5.1,2.4-.2,4.8-.4,7.4-.7,2.5-.3,5.1-.5,7.6-.7,2.5-.2,4.9-.1,7,.2,2.2.3,4.1,1,5.8,2.1,1.7,1.1,3.1,2.8,3.9,5,.9,2.4,1,4.8.2,7.2-.8,2.4-2.2,4.6-4.2,6.6-2,2-4.5,3.9-7.5,5.4-2.9,1.6-6,2.8-9.2,3.7-3.2.9-6.3,1.4-9.4,1.6-3.1.1-5.7-.2-8.1-1-.8-.3-1.2-.7-1.3-1.3,0-.6,0-1.2.4-1.7.3-.6.9-1,1.5-1.3.7-.3,1.4-.4,2.1-.1,1.7.6,3.7.9,6,.8,2.3,0,4.8-.5,7.2-1.1,2.5-.6,4.9-1.5,7.2-2.7,2.3-1.2,4.3-2.5,5.9-4,1.6-1.5,2.8-3.1,3.4-4.9.7-1.8.6-3.5-.2-5.3Z"/>
</svg>