<?xml version="1.0" encoding="UTF-8"?>
<svg id="Capa_1" data-name="Capa 1" xmlns="http://www.w3.org/2000/svg" viewBox="0 0 1112 516.1">
  <defs>
    <style>
      .cls-1 {
        fill: #fff;
      }

      .cls-2 {
        stroke: #666;
      }

      .cls-2, .cls-3 {
        stroke-width: 3px;
      }

      .cls-2, .cls-3, .cls-4 {
        fill: none;
      }

      .cls-2, .cls-5 {
        stroke-linecap: round;
        stroke-linejoin: round;
      }

      .cls-3, .cls-5, .cls-4 {
        stroke: #000;
      }

      .cls-3, .cls-4 {
        stroke-miterlimit: 10;
      }

      .cls-5, .cls-4 {
        stroke-width: 5px;
      }

      .cls-6 {
        fill: #999;
      }

      .cls-7 {
        fill: #ccc;
      }

      .cls-8 {
        fill: #b3b3b3;
      }
    </style>
  </defs>
  <path class="cls-1" d="m419.1,425.1c5.6-11.6,34.5-1.9,125.6-4.5,7-.2,19-.6,34.8-1.5,86.7-5.3,140.6-19.7,145-7.3.1.4.2.7.2,1.3,1.9,18.2-20.2,48.5-51.4,69.6-6.9,4.6-41.6,27.4-93.8,30.3-16.4.9-57.5,2.6-99.9-21.2-32.1-18-67.5-52.1-60.5-66.6Z"/>
  <path class="cls-6" d="m581.5,390.7c1.6-11.4,2.4-22.9,2.4-34.4,0-11.4-.8-22.8-1.8-34.2-1.8-21-4.4-42-4.8-63.1-.2,0-.4,0-.5,0-48.4-1.6-88.6,12.4-97.1,18-8.5,5.6-20.8-2.1-20.8-2.1l-59-25.8-19,22.5-6.7,46.5,1.6,16.6s10.1,20.2,14.2,26.5c4.1,6.4,16.6,22.7,16.6,22.7l3.6,3.2s-.5,17,6.1,38c.9,2.7,4.7-1.2,14.3-2.1,12.5-1.1,26.8-2.3,45,1.5,32.3,6.7,55.4-6.4,66.5-6.3,10.1,0,17.3,4.1,17.3,4.1l8.9-6.9h9.4c.9-8.3,2.6-16.5,3.8-24.7h0Z"/>
  <path class="cls-2" d="m428.8,423.1c12.5-1.1,26.8-2.3,45,1.5,32.3,6.7,55.4-6.4,66.5-6.3,10.1,0,17.3,4.1,17.3,4.1"/>
  <path class="cls-6" d="m556.5,390.7c-1.6-11.4-2.4-22.9-2.4-34.4,0-11.4.8-22.8,1.8-34.2,1.8-21,4.4-42,4.8-63.1.2,0,.4,0,.5,0,48.4-1.6,88.6,12.4,97.1,18,8.5,5.6,20.8-2.1,20.8-2.1l59-25.8,19,22.5,6.7,46.5-1.6,16.6s-10.1,20.2-14.2,26.5c-4.1,6.4-16.6,22.7-16.6,22.7l-3.6,3.2s.5,17-6.1,38c-.9,2.7-4.7-1.2-14.3-2.1-12.5-1.1-26.8-2.3-45,1.5-32.3,6.7-55.4-6.4-66.5-6.3-10.1,0-17.3,4.1-17.3,4.1l-8.9-6.9h-9.4c-.9-8.3-2.6-16.5-3.8-24.7h0Z"/>
  <path class="cls-3" d="m379,339.6c1.7,4.8,7.8,18.6,20.4,35.6,4.8,6.5,10.1,11.9,10.1,11.9,0,69.7,68.4,123.9,156.6,127.5h5.3c1.3,0,2.6-.2,3.9-.2"/>
  <path d="m482.4,276s.9-1.4,7.5-3.9c2.4-.9,8.9-2.2,8.9-2.2,0,0,13.9,7,32.6,23.2,15.5,13.5,24.8,28,28.3,45.2,1.7,8.4,1.3,17.7-1.8,17-9.2-2-2.6-28.9-40-56-14.9-10.9-35.6-23.4-35.6-23.4h0Z"/>
  <path d="m508.1,266.5s7.6-1.8,11.5-2.6c8-1.6,11.7-1.6,11.7-1.6,0,0,3.3,7.4,5,11.1,2.8,6.1,5.3,13.5,4.2,14.6-3.7,3.8-5.2-3.1-16.3-11.7-4.1-3.2-9-6.1-10.9-7.5-2.2-1.5-5.2-2.4-5.2-2.4h0Z"/>
  <path d="m502.7,336.3s-8.3,4.3-8.5,7.4,11.2,2.5,15.3.9,7.9-7,5.4-8.3c-2.5-1.4-8.8-1.9-12.1,0Z"/>
  <path class="cls-8" d="m468.5,307.5s-29,13.1-40.4,33.1c-11.4,19.9-15.2,30.4-15.2,30.4,0,0-45.5-68.4-28-96,43.3-68.6,83.7,32.5,83.7,32.5h0Z"/>
  <path d="m480,277.6c0-.2-.2-.5-.4-.6-3.4-3.9-42.5-47.1-81-33.9-33.3,11.4-33.8,41.6-31.3,59.4,2.7,19,8.3,32.5,11.6,40.2.9,2,6.5-12.2,7.4-14.3,1.3-3.2.9-3.7-.3-11.1-3.3-19.6-4.9-33.9,6.7-47.4,16.8-19.8,39.1-9,52.2,4.1,10.5,10.5,19.5,25.8,22.5,31.4.6,1.1,2.1,1.4,3.1.6,4.6-3.7,15.1-14.2,9.6-28.3Z"/>
  <path d="m569.1,258.5h0c-.4,0-.7,0-1.1,0h-1.1c-10.8.2-22.9,1.7-22.9,1.7,4.2,2.2,16.3,30.5,19.2,37.3,1.8,4.3,2.3,5.3,4.8,5.3,1.9,0,3-1,4.8-5.3,2.9-6.8,14.9-35.1,19.2-37.3,0,0-12.1-1.5-22.9-1.7h0Z"/>
  <ellipse cx="439.5" cy="356.9" rx="8.2" ry="3.2" transform="translate(-123.1 293.6) rotate(-32.7)"/>
  <ellipse cx="433.5" cy="372" rx="8.2" ry="3.2" transform="translate(-132.2 292.8) rotate(-32.7)"/>
  <path d="m633.4,336.3s8.3,4.3,8.5,7.4c.2,3.1-11.2,2.5-15.3.9-4.1-1.6-7.9-7-5.4-8.3,2.5-1.4,8.8-1.9,12.1,0Z"/>
  <ellipse cx="696.6" cy="356.9" rx="3.2" ry="8.2" transform="translate(20.2 750.8) rotate(-57.3)"/>
  <ellipse cx="702.6" cy="372" rx="3.2" ry="8.2" transform="translate(10.3 762.7) rotate(-57.3)"/>
  <ellipse cx="439.5" cy="314.1" rx="3.4" ry="8.8" transform="translate(-98.2 261.8) rotate(-30)"/>
  <ellipse cx="426" cy="314.1" rx="3.3" ry="16.9" transform="translate(-82.7 460.4) rotate(-52.5)"/>
  <ellipse cx="422.7" cy="325.2" rx="4.3" ry="14.4" transform="translate(44.8 701.6) rotate(-82.5)"/>
  <path d="m654.1,276s-.9-1.4-7.5-3.9c-2.4-.9-8.9-2.2-8.9-2.2,0,0-13.9,7-32.6,23.2-15.5,13.5-24.8,28-28.3,45.2-1.7,8.4-1.3,17.7,1.8,17,9.2-2,2.6-28.9,40-56,14.9-10.9,35.6-23.4,35.6-23.4h0Z"/>
  <path d="m626.1,265.5s-7-1.8-10.6-2.6c-7.4-1.6-10.9-.9-10.9-.9,0,0-3.1,6.7-4.6,10.4-2.6,6.1-4.9,13.5-3.9,14.6,3.5,3.8,4.8-3.1,15.1-11.7,3.8-3.2,8.3-6.1,10.1-7.5,2-1.5,4.8-2.4,4.8-2.4h0Z"/>
  <path class="cls-3" d="m758.6,339.6c-1.7,4.8-7.8,18.6-20.4,35.6-4.8,6.5-10.1,11.9-10.1,11.9,0,69.7-68.4,123.9-156.6,127.5"/>
  <path class="cls-8" d="m669,307.5s29,13.1,40.4,33.1c11.4,19.9,15.2,30.4,15.2,30.4,0,0,45.5-68.4,28-96-43.3-68.6-83.7,32.5-83.7,32.5h0Z"/>
  <path d="m657.5,277.6c0-.2.2-.5.4-.6,3.4-3.9,42.5-47.1,81-33.9,33.3,11.4,33.8,41.6,31.3,59.4-2.7,19-8.3,32.5-11.6,40.2-.9,2-6.5-12.2-7.4-14.3-1.3-3.2-.9-3.7.3-11.1,3.3-19.6,4.9-33.9-6.7-47.4-16.8-19.8-39.1-9-52.2,4.1-10.5,10.5-19.5,25.8-22.5,31.4-.6,1.1-2.1,1.4-3.1.6-4.6-3.7-15.1-14.2-9.6-28.3h0Z"/>
  <ellipse cx="698" cy="314.1" rx="8.8" ry="3.4" transform="translate(77 761.6) rotate(-60)"/>
  <ellipse cx="711.6" cy="314.1" rx="16.9" ry="3.3" transform="translate(-44 498.7) rotate(-37.5)"/>
  <ellipse cx="714.9" cy="325.2" rx="14.4" ry="4.3" transform="translate(-36.5 96.6) rotate(-7.5)"/>
  <path class="cls-3" d="m665.6,284.8c-.5-.4-18.2-23-98.4-26.3h-.3c-75.5,3.2-98.2,26.1-98.4,26.3"/>
  <path d="m557.7,376.6c-.2,5.2,0,14.5,0,16.3.1,2.8-.2,10,3.9,8.2,2.7-1.2,1.8-19.2,1.8-21.1,0-1.9-.1-5-2.9-5.4s-2.8,2-2.8,2h0Z"/>
  <path d="m581.6,376.6c.2,5.2,0,14.5,0,16.3-.1,2.8.2,10-3.9,8.2-2.7-1.2-1.8-19.2-1.8-21.1,0-1.9.1-5,2.9-5.4s2.8,2,2.8,2h0Z"/>
  <path class="cls-2" d="m708.1,423.1c-12.5-1.1-26.8-2.3-45,1.5-32.3,6.7-55.4-6.4-66.5-6.3-10.1,0-17.3,4.1-17.3,4.1"/>
  <path class="cls-5" d="m588.2,450.4c-6.7-4.2-13.3-8.4-20-12.5-6.7,4.2-13.3,8.4-20,12.5"/>
  <path class="cls-7" d="m551.4,418.8c5.1-6.8,14.5-5.7,16.8-5.3,2.3-.4,11.7-1.5,16.8,5.3,5.9,7.8-7.3,14.4-9.7,16.5-2,1.7-5.7,1.5-7.1,1.3-1.4.2-5.1.4-7.1-1.3-2.4-2.1-15.6-8.7-9.7-16.5h0Z"/>
  <path d="m409.2,396.3s2.3,21.9,12.3,39.9c0,0,15.2-3.3,32.4-18.9,17.2-15.5,23.3-27,20.5-32.9s-5.8,0-27.5,6.6c-18.5,5.6-37.7,5.3-37.7,5.3Z"/>
  <path d="m431.1,449.3s1.3,2.3,6.6,8.7c3.6,4.3,6.7,6.5,6.7,6.5,0,0,11.7-9.6,24.9-20.9,13.2-11.3,9.3-12.3,8.7-13.6-.5-.8-13.4,6.6-17.3,8.8-10,5.7-29.6,10.5-29.6,10.5h0Z"/>
  <path d="m727.2,396.3s-2.3,21.9-12.3,39.9c0,0-15.2-3.3-32.4-18.9-17.2-15.5-23.3-27-20.5-32.9,2.8-5.9,5.8,0,27.5,6.6,18.5,5.6,37.7,5.3,37.7,5.3Z"/>
  <path d="m706.9,449.3s-1.3,2.3-6.6,8.7c-3.6,4.3-6.7,6.5-6.7,6.5,0,0-11.7-9.6-24.9-20.9-13.2-11.3-9.3-12.3-8.7-13.6.5-.8,13.4,6.6,17.3,8.8,10,5.7,29.6,10.5,29.6,10.5h0Z"/>
  <path class="cls-4" d="m538.5,402.8c8.2-15.7,2.1-35.2-13.6-43.4-12.6-6.6-28.1-1.7-34.7,10.9-5.3,10.1-1.3,22.5,8.7,27.8,8.1,4.2,18,1.1,22.2-7,3.4-6.4.9-14.4-5.6-17.8-5.2-2.7-11.5-.7-14.2,4.5s-.6,9.2,3.6,11.4,7.4.4,9.1-2.9c1.4-2.6.4-5.9-2.3-7.3s-4.7-.3-5.8,1.8"/>
  <path class="cls-4" d="m590.5,382.2c8.1,15.8,27.4,22.1,43.2,14,12.6-6.5,17.7-21.9,11.2-34.6-5.2-10.1-17.6-14.1-27.7-9-8.1,4.1-11.3,14-7.2,22.1,3.3,6.5,11.2,9,17.7,5.7,5.2-2.6,7.2-9,4.6-14.2-2.1-4.1-7.2-5.8-11.3-3.7-3.3,1.7-4.6,5.8-2.9,9.1,1.4,2.7,4.6,3.7,7.3,2.3,2.1-1.1,3-3.7,1.9-5.8"/>
</svg>