<?xml version="1.0" encoding="UTF-8"?>
<svg id="Capa_1" data-name="Capa 1" xmlns="http://www.w3.org/2000/svg" viewBox="0 0 1366 768">
  <defs>
    <style>
      .cls-1 {
        fill: #ffea83;
      }

      .cls-2 {
        fill: #ffe14e;
      }

      .cls-3 {
        fill: #ffe568;
      }

      .cls-4 {
        fill: #fffceb;
      }

      .cls-5 {
        fill: #fff3b7;
      }

      .cls-6 {
        fill: #ffee9d;
      }
    </style>
  </defs>
  <path class="cls-4" d="m1365.7,130.6c-48.6-6.7-80-51-107.5-87.8-29.5-39.5-56-81.7-88.7-118.7-20.6-23.3-49.9-53.9-84.4-48.9-39.4,5.6-69.8,47.7-92.1,76.6-26.7,34.7-50.5,71.5-77.5,106-20,25.5-43.9,56.7-75.3,68.6-25.1,9.5-57.9,4.2-84.4,4.2h-73c-24.3,0-48.7,0-73,0-25.8,0-60.7-6.2-84.4,5.4-34.3,16.6-57.3,56.6-76.7,87.3-27.8,44.2-52,90.6-79.6,135-20.4,32.9-50.8,90-93.6,97.6-37.1,6.6-66-36.5-83.5-62.3-32.6-48-57.6-100.9-86.4-151.2C81.5,200.3,52.2,139.8-.3,130.6V2.7c52.5,9.2,81.8,69.8,105.8,111.8,28.8,50.3,53.8,103.2,86.4,151.2,17.5,25.8,46.3,68.9,83.5,62.3,42.7-7.6,73.2-64.7,93.6-97.6,27.5-44.4,51.7-90.8,79.6-135,19.4-30.7,42.4-70.7,76.7-87.3,23.8-11.5,58.6-5.4,84.4-5.4s48.7,0,73,0,48.7,0,73,0c26.4,0,59.3,5.3,84.4-4.2,31.5-11.9,55.4-43,75.3-68.6,27-34.5,50.8-71.3,77.5-106,22.3-29,52.7-71,92.1-76.6,34.5-4.9,63.8,25.6,84.4,48.9,32.7,37,59.2,79.3,88.7,118.7,27.5,36.8,58.9,81.1,107.5,87.8v127.8Z"/>
  <path class="cls-5" d="m1365.7,258.4c-48.6-6.7-80-51-107.5-87.8-29.5-39.5-56-81.7-88.7-118.7-20.6-23.3-49.9-53.9-84.4-48.9-39.4,5.6-69.8,47.7-92.1,76.6-26.7,34.7-50.5,71.5-77.5,106-20,25.5-43.9,56.7-75.3,68.6-25.1,9.5-57.9,4.2-84.4,4.2h-73c-24.3,0-48.7,0-73,0s-60.7-6.2-84.4,5.4c-34.3,16.6-57.3,56.6-76.7,87.3-27.8,44.2-52,90.6-79.6,135-20.4,32.9-50.8,90-93.6,97.6-37.1,6.6-66-36.5-83.5-62.3-32.6-48-57.6-100.9-86.4-151.2-24-42-53.4-102.5-105.8-111.8v-127.8c52.5,9.2,81.8,69.8,105.8,111.8,28.8,50.3,53.8,103.2,86.4,151.2,17.5,25.8,46.3,68.9,83.5,62.3,42.7-7.6,73.2-64.7,93.6-97.6,27.5-44.4,51.7-90.8,79.6-135,19.4-30.7,42.4-70.7,76.7-87.3,23.8-11.5,58.6-5.4,84.4-5.4,24.3,0,48.7,0,73,0h73c26.4,0,59.3,5.3,84.4-4.2,31.5-11.9,55.4-43,75.3-68.6,27-34.5,50.8-71.3,77.5-106,22.3-29,52.7-71,92.1-76.6,34.5-4.9,63.8,25.6,84.4,48.9,32.7,37,59.2,79.3,88.7,118.7,27.5,36.8,58.9,81.1,107.5,87.8v127.8Z"/>
  <path class="cls-6" d="m1365.7,386.2c-48.6-6.7-80-51-107.5-87.8-29.5-39.5-56-81.7-88.7-118.7-20.6-23.3-49.9-53.9-84.4-48.9-39.4,5.6-69.8,47.7-92.1,76.6-26.7,34.7-50.5,71.5-77.5,106-20,25.5-43.9,56.7-75.3,68.6-25.1,9.5-57.9,4.2-84.4,4.2-24.3,0-48.7,0-73,0h-73c-25.8,0-60.7-6.2-84.4,5.4-34.3,16.6-57.3,56.6-76.7,87.3-27.8,44.2-52,90.6-79.6,135-20.4,32.9-50.8,90-93.6,97.6-37.1,6.6-66-36.5-83.5-62.3-32.6-48-57.6-100.9-86.4-151.2-24-42-53.4-102.5-105.8-111.8,0-42.6,0-85.2,0-127.8,52.5,9.2,81.8,69.8,105.8,111.8,28.8,50.3,53.8,103.2,86.4,151.2,17.5,25.8,46.3,68.9,83.5,62.3,42.7-7.6,73.2-64.7,93.6-97.6,27.5-44.4,51.7-90.8,79.6-135,19.4-30.7,42.4-70.7,76.7-87.3,23.8-11.5,58.6-5.4,84.4-5.4s48.7,0,73,0h73c26.4,0,59.3,5.3,84.4-4.2,31.5-11.9,55.4-43,75.3-68.6,27-34.5,50.8-71.3,77.5-106,22.3-29,52.7-71,92.1-76.6,34.5-4.9,63.8,25.6,84.4,48.9,32.7,37,59.2,79.3,88.7,118.7,27.5,36.8,58.9,81.1,107.5,87.8v127.8Z"/>
  <path class="cls-1" d="m1365.7,514.1c-48.6-6.7-80-51-107.5-87.8-29.5-39.5-56-81.7-88.7-118.7-20.6-23.3-49.9-53.9-84.4-48.9-39.4,5.6-69.8,47.7-92.1,76.6-26.7,34.7-50.5,71.5-77.5,106-20,25.5-43.9,56.7-75.3,68.6-25.1,9.5-57.9,4.2-84.4,4.2s-48.7,0-73,0h-73c-25.8,0-60.7-6.2-84.4,5.4-34.3,16.6-57.3,56.6-76.7,87.3-27.8,44.2-52,90.6-79.6,135-20.4,32.9-50.8,90-93.6,97.6-37.1,6.6-66-36.5-83.5-62.3-32.6-48-57.6-100.9-86.4-151.2-24-42-53.4-102.5-105.8-111.8v-127.8c52.5,9.2,81.8,69.8,105.8,111.8,28.8,50.3,53.8,103.2,86.4,151.2,17.5,25.8,46.3,68.9,83.5,62.3,42.7-7.6,73.2-64.7,93.6-97.6,27.5-44.4,51.7-90.8,79.6-135,19.4-30.7,42.4-70.7,76.7-87.3,23.8-11.5,58.6-5.4,84.4-5.4h73c24.3,0,48.7,0,73,0,26.4,0,59.3,5.3,84.4-4.2,31.5-11.9,55.4-43,75.3-68.6,27-34.5,50.8-71.3,77.5-106,22.3-29,52.7-71,92.1-76.6,34.5-4.9,63.8,25.6,84.4,48.9,32.7,37,59.2,79.3,88.7,118.7,27.5,36.8,58.9,81.1,107.5,87.8v127.8Z"/>
  <path class="cls-3" d="m1365.7,641.9c-48.6-6.7-80-51-107.5-87.8-29.5-39.5-56-81.7-88.7-118.7-20.6-23.3-49.9-53.9-84.4-48.9-39.4,5.6-69.8,47.7-92.1,76.6-26.7,34.7-50.5,71.5-77.5,106-20,25.5-43.9,56.7-75.3,68.6-25.1,9.5-57.9,4.2-84.4,4.2h-146.1c-25.8,0-60.7-6.2-84.4,5.4-34.3,16.6-57.3,56.6-76.7,87.3-27.8,44.2-52,90.6-79.6,135-20.4,32.9-50.8,90-93.6,97.6-37.1,6.6-66-36.5-83.5-62.3-32.6-48-57.6-100.9-86.4-151.2-24-42-53.4-102.5-105.8-111.8v-127.8c52.5,9.2,81.8,69.8,105.8,111.8,28.8,50.3,53.8,103.2,86.4,151.2,17.5,25.8,46.3,68.9,83.5,62.3,42.7-7.6,73.2-64.7,93.6-97.6,27.5-44.4,51.7-90.8,79.6-135,19.4-30.7,42.4-70.7,76.7-87.3,23.8-11.5,58.6-5.4,84.4-5.4h73c24.3,0,48.7,0,73,0s59.3,5.3,84.4-4.2c31.5-11.9,55.4-43,75.3-68.6,27-34.5,50.8-71.3,77.5-106,22.3-29,52.7-71,92.1-76.6,34.5-4.9,63.8,25.6,84.4,48.9,32.7,37,59.2,79.3,88.7,118.7,27.5,36.8,58.9,81.1,107.5,87.8v127.8Z"/>
  <path class="cls-2" d="m1365.7,769.7c-48.6-6.7-80-51-107.5-87.8-29.5-39.5-56-81.7-88.7-118.7-20.6-23.3-49.9-53.9-84.4-48.9-39.4,5.6-69.8,47.7-92.1,76.6-26.7,34.7-50.5,71.5-77.5,106-20,25.5-43.9,56.7-75.3,68.6-25.1,9.5-57.9,4.2-84.4,4.2h-73c-24.3,0-48.7,0-73,0-25.8,0-60.7-6.2-84.4,5.4-34.3,16.6-57.3,56.6-76.7,87.3-27.8,44.2-52,90.6-79.6,135-20.4,32.9-50.8,90-93.6,97.6-37.1,6.6-66-36.5-83.5-62.3-32.6-48-57.6-100.9-86.4-151.2-24-42-53.4-102.5-105.8-111.8v-127.8c52.5,9.2,81.8,69.8,105.8,111.8,28.8,50.3,53.8,103.2,86.4,151.2,17.5,25.8,46.3,68.9,83.5,62.3,42.7-7.6,73.2-64.7,93.6-97.6,27.5-44.4,51.7-90.8,79.6-135,19.4-30.7,42.4-70.7,76.7-87.3,23.8-11.5,58.6-5.4,84.4-5.4h146.1c26.4,0,59.3,5.3,84.4-4.2,31.5-11.9,55.4-43,75.3-68.6,27-34.5,50.8-71.3,77.5-106,22.3-29,52.7-71,92.1-76.6,34.5-4.9,63.8,25.6,84.4,48.9,32.7,37,59.2,79.3,88.7,118.7,27.5,36.8,58.9,81.1,107.5,87.8v127.8Z"/>
</svg>