<?xml version="1.0" encoding="UTF-8"?>
<svg id="Capa_1" data-name="Capa 1" xmlns="http://www.w3.org/2000/svg" viewBox="0 0 1372.1 1340.9">
  <defs>
    <style>
      .cls-1 {
        fill: #f0f0f0;
      }

      .cls-2 {
        fill: #dadada;
      }

      .cls-3 {
        fill: #eaeaea;
      }

      .cls-4 {
        fill: #fbfbfb;
      }

      .cls-5 {
        fill: #e5e5e5;
      }

      .cls-6 {
        fill: #dfdfdf;
      }
    </style>
  </defs>
  <path class="cls-4" d="m1366,383.8c-48.6-6.7-80-51-107.5-87.8-29.5-39.5-56-81.7-88.7-118.7-20.6-23.3-49.9-53.9-84.4-48.9-39.4,5.6-69.8,47.7-92.1,76.6-26.7,34.7-50.5,71.5-77.5,106-20,25.5-43.9,56.7-75.3,68.6-25.1,9.5-57.9,4.2-84.4,4.2h-146c-25.8,0-60.7-6.2-84.4,5.4-34.3,16.6-57.3,56.6-76.7,87.3-27.8,44.2-52,90.6-79.6,135-20.4,32.9-50.8,90-93.6,97.6-37.1,6.6-66-36.5-83.5-62.3-32.6-48-57.6-100.9-86.4-151.2-24.1-42.1-53.4-102.6-105.9-111.8v-127.9c52.5,9.2,81.8,69.8,105.8,111.8,28.8,50.3,53.8,103.2,86.4,151.2,17.5,25.8,46.3,68.9,83.5,62.3,42.7-7.6,73.2-64.7,93.6-97.6,27.5-44.4,51.7-90.8,79.6-135,19.4-30.7,42.4-70.7,76.7-87.3,23.8-11.5,58.6-5.4,84.4-5.4h146c26.4,0,59.3,5.3,84.4-4.2,31.5-11.9,55.4-43,75.3-68.6,27-34.5,50.8-71.3,77.5-106,22.3-29,52.7-71,92.1-76.6,34.5-4.9,63.8,25.6,84.4,48.9,32.7,37,59.2,79.3,88.7,118.7,27.5,36.8,58.9,81.1,107.5,87.8v127.8h0Z"/>
  <path class="cls-1" d="m1372,503.6c-48.6-6.7-80-51-107.5-87.8-29.5-39.5-56-81.7-88.7-118.7-20.6-23.3-49.9-53.9-84.4-48.9-39.4,5.6-69.8,47.7-92.1,76.6-26.7,34.7-50.5,71.5-77.5,106-20,25.5-43.9,56.7-75.3,68.6-25.1,9.5-57.9,4.2-84.4,4.2h-146c-24.3,0-60.7-6.2-84.4,5.4-34.3,16.6-57.3,56.6-76.7,87.3-27.8,44.2-52,90.6-79.6,135-20.4,32.9-50.8,90-93.6,97.6-37.1,6.6-66-36.5-83.5-62.3-32.6-48-57.6-100.9-86.4-151.2-24-42-53.4-102.5-105.8-111.8v-127.8c52.5,9.2,81.8,69.8,105.8,111.8,28.8,50.3,53.8,103.2,86.4,151.2,17.5,25.8,46.3,68.9,83.5,62.3,42.7-7.6,73.2-64.7,93.6-97.6,27.5-44.4,51.7-90.8,79.6-135,19.4-30.7,42.4-70.7,76.7-87.3,23.8-11.5,58.6-5.4,84.4-5.4h146c26.4,0,59.3,5.3,84.4-4.2,31.5-11.9,55.4-43,75.3-68.6,27-34.5,50.8-71.3,77.5-106,22.3-29,52.7-71,92.1-76.6,34.5-4.9,63.8,25.6,84.4,48.9,32.7,37,59.2,79.3,88.7,118.7,27.5,36.8,58.9,81.1,107.5,87.8v127.8h0Z"/>
  <path class="cls-3" d="m1372,631.4c-48.6-6.7-80-51-107.5-87.8-29.5-39.5-56-81.7-88.7-118.7-20.6-23.3-49.9-53.9-84.4-48.9-39.4,5.6-69.8,47.7-92.1,76.6-26.7,34.7-50.5,71.5-77.5,106-20,25.5-43.9,56.7-75.3,68.6-25.1,9.5-57.9,4.2-84.4,4.2h-146c-25.8,0-60.7-6.2-84.4,5.4-34.3,16.6-57.3,56.6-76.7,87.3-27.8,44.2-52,90.6-79.6,135-20.4,32.9-50.8,90-93.6,97.6-37.1,6.6-66-36.5-83.5-62.3-32.6-48-57.6-100.9-86.4-151.2-24-42-53.4-102.5-105.8-111.8v-127.8c52.5,9.2,81.8,69.8,105.8,111.8,28.8,50.3,53.8,103.2,86.4,151.2,17.5,25.8,46.3,68.9,83.5,62.3,42.7-7.6,73.2-64.7,93.6-97.6,27.5-44.4,51.7-90.8,79.6-135,19.4-30.7,42.4-70.7,76.7-87.3,23.8-11.5,58.6-5.4,84.4-5.4h146c26.4,0,59.3,5.3,84.4-4.2,31.5-11.9,55.4-43,75.3-68.6,27-34.5,50.8-71.3,77.5-106,22.3-29,52.7-71,92.1-76.6,34.5-4.9,63.8,25.6,84.4,48.9,32.7,37,59.2,79.3,88.7,118.7,27.5,36.8,58.9,81.1,107.5,87.8v127.8Z"/>
  <path class="cls-5" d="m1372,759.3c-48.6-6.7-80-51-107.5-87.8-29.5-39.5-56-81.7-88.7-118.7-20.6-23.3-49.9-53.9-84.4-48.9-39.4,5.6-69.8,47.7-92.1,76.6-26.7,34.7-50.5,71.5-77.5,106-20,25.5-43.9,56.7-75.3,68.6-25.1,9.5-57.9,4.2-84.4,4.2h-146c-25.8,0-60.7-6.2-84.4,5.4-34.3,16.6-57.3,56.6-76.7,87.3-27.8,44.2-52,90.6-79.6,135-20.4,32.9-50.8,90-93.6,97.6-37.1,6.6-66-36.5-83.5-62.3-32.6-48-57.6-100.9-86.4-151.2-24-42-53.4-102.5-105.8-111.8v-127.8c52.5,9.2,81.8,69.8,105.8,111.8,28.8,50.3,53.8,103.2,86.4,151.2,17.5,25.8,46.3,68.9,83.5,62.3,42.7-7.6,73.2-64.7,93.6-97.6,27.5-44.4,51.7-90.8,79.6-135,19.4-30.7,42.4-70.7,76.7-87.3,23.8-11.5,58.6-5.4,84.4-5.4h146c26.4,0,59.3,5.3,84.4-4.2,31.5-11.9,55.4-43,75.3-68.6,27-34.5,50.8-71.3,77.5-106,22.3-29,52.7-71,92.1-76.6,34.5-4.9,63.8,25.6,84.4,48.9,32.7,37,59.2,79.3,88.7,118.7,27.5,36.8,58.9,81.1,107.5,87.8v127.8Z"/>
  <path class="cls-6" d="m1372,887.1c-48.6-6.7-80-51-107.5-87.8-29.5-39.5-56-81.7-88.7-118.7-20.6-23.3-49.9-53.9-84.4-48.9-39.4,5.6-69.8,47.7-92.1,76.6-26.7,34.7-50.5,71.5-77.5,106-20,25.5-43.9,56.7-75.3,68.6-25.1,9.5-57.9,4.2-84.4,4.2h-146.1c-25.8,0-60.7-6.2-84.4,5.4-34.3,16.6-57.3,56.6-76.7,87.3-27.8,44.2-52,90.6-79.6,135-20.4,32.9-50.8,90-93.6,97.6-37.1,6.6-66-36.5-83.5-62.3-32.6-48-57.6-100.9-86.4-151.2-24-42-53.4-102.5-105.8-111.8v-127.8c52.5,9.2,81.8,69.8,105.8,111.8,28.8,50.3,53.8,103.2,86.4,151.2,17.5,25.8,46.3,68.9,83.5,62.3,42.7-7.6,73.2-64.7,93.6-97.6,27.5-44.4,51.7-90.8,79.6-135,19.4-30.7,42.4-70.7,76.7-87.3,23.8-11.5,58.6-5.4,84.4-5.4h146c24.3,0,59.3,5.3,84.4-4.2,31.5-11.9,55.4-43,75.3-68.6,27-34.5,50.8-71.3,77.5-106,22.3-29,52.7-71,92.1-76.6,34.5-4.9,63.8,25.6,84.4,48.9,32.7,37,59.2,79.3,88.7,118.7,27.5,36.8,58.9,81.1,107.5,87.8v127.8h0Z"/>
  <path class="cls-2" d="m1372,1014.9c-48.6-6.7-80-51-107.5-87.8-29.5-39.5-56-81.7-88.7-118.7-20.6-23.3-49.9-53.9-84.4-48.9-39.4,5.6-69.8,47.7-92.1,76.6-26.7,34.7-50.5,71.5-77.5,106-20,25.5-43.9,56.7-75.3,68.6-25.1,9.5-57.9,4.2-84.4,4.2h-146c-25.8,0-60.7-6.2-84.4,5.4-34.3,16.6-57.3,56.6-76.7,87.3-27.8,44.2-52,90.6-79.6,135-20.4,32.9-50.8,90-93.6,97.6-37.1,6.6-66-36.5-83.5-62.3-32.6-48-57.6-100.9-86.4-151.2-24-42-53.4-102.5-105.8-111.8v-127.8c52.5,9.2,81.8,69.8,105.8,111.8,28.8,50.3,53.8,103.2,86.4,151.2,17.5,25.8,46.3,68.9,83.5,62.3,42.7-7.6,73.2-64.7,93.6-97.6,27.5-44.4,51.7-90.8,79.6-135,19.4-30.7,42.4-70.7,76.7-87.3,23.8-11.5,58.6-5.4,84.4-5.4h146.1c26.4,0,59.3,5.3,84.4-4.2,31.5-11.9,55.4-43,75.3-68.6,27-34.5,50.8-71.3,77.5-106,22.3-29,52.7-71,92.1-76.6,34.5-4.9,63.8,25.6,84.4,48.9,32.7,37,59.2,79.3,88.7,118.7,27.5,36.8,58.9,81.1,107.5,87.8v127.8h-.1Z"/>
</svg>