<?xml version="1.0" encoding="UTF-8"?>
<svg id="Capa_1" data-name="Capa 1" xmlns="http://www.w3.org/2000/svg" viewBox="0 0 1366 768">
  <defs>
    <style>
      .cls-1 {
        fill: #ffea83;
      }

      .cls-2 {
        fill: #ffe14e;
      }

      .cls-3 {
        fill: #ffe568;
      }

      .cls-4 {
        fill: #fffceb;
      }

      .cls-5 {
        fill: #fff3b7;
      }

      .cls-6 {
        fill: #ffee9d;
      }
    </style>
  </defs>
  <path class="cls-4" d="m1365.52,49.9c-70.17,2.87-130.18,39.3-195.24,61.31-61.99,20.97-116,14.98-176.42-8.23-50.05-19.22-99.41-45.71-153.37-51.83-55.19-6.25-106.99,15.89-156.75,36.75-49.65,20.81-101.66,43.17-156.75,36.75-53.99-6.3-103.27-32.59-153.37-51.83-60.52-23.24-114.8-29.02-176.81-8.23C131.24,86.57,70.55,123.01-.05,125.9c0-50.72,0-101.44,0-152.17,70.61-2.88,131.29-39.33,196.85-61.31,62.01-20.79,116.28-15.02,176.81,8.23,50.1,19.24,99.38,45.53,153.37,51.83,55.09,6.43,107.11-15.93,156.75-36.75,49.76-20.86,101.57-43,156.75-36.75,53.96,6.11,103.32,32.61,153.37,51.83,60.43,23.21,114.43,29.2,176.42,8.23,65.06-22.01,125.07-58.44,195.24-61.31V49.9Z"/>
  <path class="cls-5" d="m1365.52,202.06c-70.17,2.87-130.18,39.3-195.24,61.31-61.99,20.97-116,14.98-176.42-8.23-50.05-19.22-99.41-45.71-153.37-51.83-55.19-6.25-106.99,15.89-156.75,36.75-49.65,20.81-101.66,43.17-156.75,36.75-53.99-6.3-103.27-32.59-153.37-51.83-60.53-23.24-114.8-29.02-176.81-8.23C131.24,238.73,70.55,275.18-.05,278.06c0-50.72,0-101.44,0-152.17,70.61-2.88,131.29-39.33,196.85-61.31,62.01-20.79,116.28-15.02,176.81,8.23,50.1,19.24,99.38,45.53,153.37,51.83,55.09,6.43,107.11-15.93,156.75-36.75,49.76-20.86,101.57-43,156.75-36.75,53.96,6.11,103.32,32.61,153.37,51.83,60.43,23.21,114.43,29.2,176.42,8.23,65.06-22.01,125.07-58.44,195.24-61.31,0,50.72,0,101.44,0,152.17Z"/>
  <path class="cls-6" d="m1365.52,354.23c-70.17,2.87-130.18,39.3-195.24,61.31-61.99,20.97-116,14.98-176.42-8.23-50.05-19.22-99.41-45.71-153.37-51.83-55.19-6.25-106.99,15.89-156.75,36.75-49.65,20.81-101.66,43.17-156.75,36.75-53.99-6.3-103.27-32.59-153.37-51.83-60.52-23.24-114.8-29.02-176.81-8.23C131.24,390.9,70.55,427.35-.05,430.23c0-50.72,0-101.44,0-152.17,70.61-2.88,131.29-39.33,196.85-61.31,62.01-20.79,116.28-15.02,176.81,8.23,50.1,19.24,99.38,45.53,153.37,51.83,55.09,6.43,107.11-15.93,156.75-36.75,49.76-20.86,101.57-43,156.75-36.75,53.96,6.11,103.32,32.61,153.37,51.83,60.43,23.2,114.43,29.2,176.42,8.23,65.06-22.01,125.07-58.44,195.24-61.31v152.17Z"/>
  <path class="cls-1" d="m1365.52,506.4c-70.17,2.87-130.18,39.3-195.24,61.31-61.99,20.97-116,14.98-176.42-8.23-50.05-19.22-99.41-45.71-153.37-51.83-55.19-6.25-106.99,15.89-156.75,36.75-49.65,20.81-101.66,43.17-156.75,36.75-53.99-6.3-103.27-32.59-153.37-51.83-60.52-23.24-114.8-29.02-176.81-8.23-65.56,21.98-126.25,58.42-196.85,61.31,0-50.72,0-101.44,0-152.17,70.61-2.88,131.29-39.33,196.85-61.31,62.01-20.79,116.28-15.02,176.81,8.23,50.1,19.24,99.38,45.53,153.37,51.83,55.09,6.43,107.11-15.93,156.75-36.75,49.76-20.86,101.57-43,156.75-36.75,53.96,6.11,103.32,32.61,153.37,51.83,60.43,23.21,114.43,29.2,176.42,8.23,65.06-22.01,125.07-58.44,195.24-61.31v152.17Z"/>
  <path class="cls-3" d="m1365.52,658.56c-70.17,2.87-130.18,39.3-195.24,61.31-61.99,20.97-116,14.98-176.42-8.23-50.05-19.22-99.41-45.71-153.37-51.83-55.19-6.25-106.99,15.89-156.75,36.75-49.65,20.81-101.66,43.17-156.75,36.75-53.99-6.3-103.27-32.59-153.37-51.83-60.53-23.24-114.8-29.02-176.81-8.23-65.56,21.98-126.25,58.42-196.85,61.31,0-50.72,0-101.44,0-152.17,70.61-2.88,131.29-39.33,196.85-61.31,62.01-20.79,116.28-15.02,176.81,8.23,50.1,19.24,99.38,45.53,153.37,51.83,55.09,6.43,107.11-15.93,156.75-36.75,49.76-20.86,101.57-43,156.75-36.75,53.96,6.11,103.32,32.61,153.37,51.83,60.43,23.21,114.43,29.2,176.42,8.23,65.06-22.01,125.07-58.44,195.24-61.31,0,50.72,0,101.44,0,152.17Z"/>
  <path class="cls-2" d="m1365.52,810.73c-70.17,2.87-130.18,39.3-195.24,61.31-61.99,20.97-116,14.98-176.42-8.23-50.05-19.22-99.41-45.71-153.37-51.83-55.19-6.25-106.99,15.89-156.75,36.75-49.65,20.81-101.66,43.17-156.75,36.75-53.99-6.3-103.27-32.59-153.37-51.83-60.52-23.24-114.8-29.02-176.81-8.23-65.56,21.98-126.25,58.42-196.85,61.31,0-50.72,0-101.44,0-152.17,70.61-2.88,131.29-39.33,196.85-61.31,62.01-20.79,116.28-15.02,176.81,8.23,50.1,19.24,99.38,45.53,153.37,51.83,55.09,6.43,107.11-15.93,156.75-36.75,49.76-20.86,101.57-43,156.75-36.75,53.96,6.11,103.32,32.61,153.37,51.83,60.43,23.2,114.43,29.2,176.42,8.23,65.06-22.01,125.07-58.44,195.24-61.31v152.17Z"/>
</svg>